# ProBuilder 6.0.4
# https://unity3d.com/unity/features/worldbuilding/probuilder
# 01.12.2024 14:09:24

mtllib ./TableSmall.mtl
o TableSmall

g Cube
v 0.5 0.625 0.625
v -0.5 0.625 0.625
v 0.5 0.75 0.625
v -0.5 0.75 0.625
v -0.625 0.625 0.5
v -0.625 0.625 -0.5
v -0.625 0.75 0.5
v -0.625 0.75 -0.5
v -0.5 0.625 -0.625
v 0.5 0.625 -0.625
v -0.5 0.75 -0.625
v 0.5 0.75 -0.625
v 0.625 0.625 -0.5
v 0.625 0.625 0.5
v 0.625 0.75 -0.5
v 0.625 0.75 0.5
v 0.5 0.75 0.5
v -0.5 0.75 0.5
v 0.5 0.75 -0.5
v -0.5 0.75 -0.5
v 0.5 0.625 -0.5
v -0.5 0.625 -0.5
v 0.5 0.625 0.5
v -0.5 0.625 0.5
v 0.625 0.75 0.625
v 0.625 0.625 0.625
v -0.625 0.625 0.625
v -0.625 0.75 0.625
v -0.625 0.75 -0.625
v -0.625 0.625 -0.625
v 0.625 0.625 -0.625
v 0.625 0.75 -0.625
v 0.5 0 -0.625
v 0.5 0 -0.5
v 0.625 0 -0.625
v 0.625 0 -0.5
v 0.5 0 0.5
v 0.5 0 0.625
v 0.625 0 0.5
v 0.625 0 0.625
v -0.5 0 0.625
v -0.5 0 0.5
v -0.625 0 0.625
v -0.625 0 0.5
v -0.5 0 -0.5
v -0.5 0 -0.625
v -0.625 0 -0.5
v -0.625 0 -0.625

vt 1 1.125
vt 0 1.125
vt 1 1.25
vt 0 1.25
vt 0 1
vt 1 1
vt 0 0
vt 1 0
vt -0.125 1.25
vt -0.125 1.125
vt 1.125 1.125
vt 1.125 1.25
vt 0 -0.125
vt 1 -0.125
vt 1.125 0
vt 1.125 1
vt 1.125 -0.125
vt -0.125 1
vt -0.125 0
vt -0.125 -0.125
vt 1 0.5
vt 1.125 0.5
vt -0.125 0.5
vt 0 0.5

vn 0 0 1
vn -1 0 0
vn 0 0 -1
vn 1 0 0
vn 0 1 0
vn 0 -1 0

usemtl ProBuilderCustom
f 3/3/1 4/4/1 2/2/1 1/1/1
f 7/3/2 8/4/2 6/2/2 5/1/2
f 11/3/3 12/4/3 10/2/3 9/1/3
f 15/3/4 16/4/4 14/2/4 13/1/4
f 19/7/5 20/8/5 18/6/5 17/5/5
f 23/6/6 24/5/6 22/7/6 21/8/6
f 1/1/6 2/2/6 24/5/6 23/6/6
f 25/9/4 26/10/4 14/2/4 16/4/4
f 27/11/2 28/12/2 7/3/2 5/1/2
f 4/1/5 3/2/5 17/5/5 18/6/5
f 9/13/6 10/14/6 21/8/6 22/7/6
f 29/9/2 30/10/2 6/2/2 8/4/2
f 31/11/4 32/12/4 15/3/4 13/1/4
f 12/13/5 11/14/5 20/8/5 19/7/5
f 13/15/6 14/16/6 23/6/6 21/8/6
f 35/17/6 36/15/6 34/8/6 33/14/6
f 25/10/5 16/18/5 17/5/5 3/2/5
f 16/18/5 15/19/5 19/7/5 17/5/5
f 39/16/6 40/11/6 38/1/6 37/6/6
f 26/11/1 25/12/1 3/3/1 1/1/1
f 15/19/5 32/20/5 12/13/5 19/7/5
f 32/9/3 31/10/3 10/2/3 12/4/3
f 29/17/5 8/15/5 20/8/5 11/14/5
f 43/10/6 44/18/6 42/5/6 41/2/6
f 7/16/5 28/11/5 4/1/5 18/6/5
f 28/9/1 27/10/1 2/2/1 4/4/1
f 5/18/6 6/19/6 22/7/6 24/5/6
f 8/15/5 7/16/5 18/6/5 20/8/5
f 47/19/6 48/20/6 46/13/6 45/7/6
f 30/11/3 29/12/3 11/3/3 9/1/3
f 45/21/4 46/22/4 9/11/4 22/1/4
f 47/23/1 45/24/1 22/2/1 6/10/1
f 46/21/3 48/22/3 30/11/3 9/1/3
f 48/23/2 47/24/2 6/2/2 30/10/2
f 41/23/4 42/24/4 24/2/4 2/10/4
f 43/23/1 41/24/1 2/2/1 27/10/1
f 42/21/3 44/22/3 5/11/3 24/1/3
f 44/21/2 43/22/2 27/11/2 5/1/2
f 37/21/2 38/22/2 1/11/2 23/1/2
f 39/23/3 37/24/3 23/2/3 14/10/3
f 38/21/1 40/22/1 26/11/1 1/1/1
f 40/23/4 39/24/4 14/2/4 26/10/4
f 33/23/2 34/24/2 21/2/2 10/10/2
f 35/23/3 33/24/3 10/2/3 31/10/3
f 34/21/1 36/22/1 13/11/1 21/1/1
f 36/21/4 35/22/4 31/11/4 13/1/4

